<?xml version="1.0" encoding="UTF-8" standalone="no"?>
<!DOCTYPE svg PUBLIC "-//W3C//DTD SVG 20010904//EN"
              "http://www.w3.org/TR/2001/REC-SVG-20010904/DTD/svg10.dtd">

<svg xmlns="http://www.w3.org/2000/svg"
     width="4.26667in" height="1.38622in"
     viewBox="69.99 47.83 1143.08 371.38">
  <defs>
    <linearGradient id="brand-gradient" x1="69.99" y1="419.21" x2="1213.07" y2="47.83" gradientUnits="userSpaceOnUse">
      <!-- <stop offset="0%" stop-color="#ffab5e"/> -->
      <stop offset="0%" stop-color="#5cc2ff"/>
      <stop offset="100%" stop-color="#fe730c"/>
    </linearGradient>
  </defs>
  <style>
  #flow {
      fill: #8ad6ff;
      stroke: none;
    }
    #joe {
      fill: #fe730c;
    }
    #flow, #joe {
      fill: url(#brand-gradient);
      stroke: none;
    }
  </style>
  <path id="flow"
        d="M 131.00,234.00
           C 114.40,237.00 100.70,250.96 91.00,255.56
             81.41,260.11 71.74,252.95 70.55,243.00
             69.99,238.27 72.03,232.97 74.47,229.00
             82.53,215.90 102.11,205.38 116.00,199.28
             120.31,197.39 135.87,191.83 137.86,188.78
             139.51,186.26 140.33,179.33 141.13,176.00
             141.13,176.00 149.20,149.00 149.20,149.00
             165.03,108.37 185.04,79.76 226.00,61.30
             245.14,52.68 278.95,47.83 299.00,54.86
             311.22,59.15 323.28,67.13 319.58,82.00
             317.67,89.68 309.56,94.69 302.00,94.96
             295.65,95.18 291.15,92.56 285.00,91.28
             275.92,89.40 264.98,89.59 256.00,92.01
             227.04,99.81 206.85,126.00 196.58,153.00
             193.63,160.73 191.19,165.57 190.00,174.00
             205.33,171.11 229.85,164.18 245.00,164.00
             252.99,163.91 260.83,163.08 267.98,167.36
             279.54,174.27 277.25,189.10 267.00,195.89
             260.11,200.46 251.89,199.87 244.04,201.06
             244.04,201.06 202.00,209.37 202.00,209.37
             195.95,210.90 182.51,212.90 180.03,219.04
             177.52,225.24 173.80,254.70 172.72,263.00
             172.72,263.00 166.83,314.00 166.83,314.00
             166.83,314.00 164.16,334.00 164.16,334.00
             164.16,334.00 158.79,375.00 158.79,375.00
             155.63,389.94 149.51,405.65 136.00,414.03
             131.56,416.79 126.38,419.21 121.00,418.66
             110.52,417.59 105.65,409.99 106.04,400.00
             106.04,400.00 111.20,374.00 111.20,374.00
             111.20,374.00 118.73,329.00 118.73,329.00
             118.73,329.00 131.00,234.00 131.00,234.00 Z
           M 336.00,102.45
           C 339.31,102.17 340.76,102.18 344.00,103.22
             364.31,109.79 354.28,137.58 350.63,152.00
             350.63,152.00 319.11,263.00 319.11,263.00
             315.45,277.63 309.17,305.49 309.00,320.00
             308.88,330.26 308.90,347.52 318.09,354.15
             326.45,360.17 342.65,352.27 343.70,366.00
             344.77,380.18 322.94,389.59 311.00,388.68
             306.00,388.30 300.64,387.27 296.00,385.37
             274.60,376.64 266.03,350.43 266.00,329.00
             266.00,329.00 266.00,316.00 266.00,316.00
             266.20,298.87 272.84,267.14 277.13,250.00
             277.13,250.00 299.58,168.00 299.58,168.00
             299.58,168.00 308.57,138.00 308.57,138.00
             313.40,121.08 315.82,106.24 336.00,102.45 Z
           M 436.00,183.42
           C 461.17,180.35 488.62,194.18 500.03,217.00
             507.33,231.59 508.80,249.03 506.71,265.00
             500.15,315.31 456.35,361.61 404.00,361.00
             397.36,360.92 389.27,359.49 383.00,357.31
             375.88,354.82 368.91,351.36 363.00,346.62
             348.22,334.78 340.01,313.71 340.01,295.00
             340.01,289.71 342.00,277.33 343.23,272.00
             353.22,229.02 392.08,190.06 436.00,183.42 Z
           M 568.00,315.00
           C 572.00,317.25 580.15,301.80 584.67,295.00
             584.67,295.00 615.20,245.00 615.20,245.00
             621.89,233.85 627.79,220.25 643.00,221.04
             652.17,221.52 656.45,228.66 657.86,237.00
             657.86,237.00 660.09,265.00 660.09,265.00
             660.79,275.22 662.39,285.95 664.40,296.00
             665.37,300.83 667.79,317.30 673.00,318.75
             675.92,319.56 679.01,314.95 680.68,313.00
             684.56,308.42 691.62,295.72 694.61,290.00
             704.89,270.39 717.90,231.07 718.20,209.00
             718.01,206.35 717.84,201.39 718.20,199.00
             720.26,190.85 728.08,186.54 736.00,187.10
             751.48,188.18 756.28,205.01 755.99,218.00
             755.67,231.92 751.08,249.75 746.74,263.00
             738.93,286.83 727.99,311.62 713.26,332.00
             703.35,345.71 689.16,360.91 671.00,361.00
             671.00,361.00 667.00,361.00 667.00,361.00
             641.56,360.69 630.77,328.87 627.28,308.00
             626.22,301.66 625.89,295.16 624.00,289.00
             620.17,297.84 606.99,319.61 601.33,328.00
             597.27,334.03 589.88,343.88 584.91,348.96
             573.34,360.79 553.75,366.94 540.09,354.67
             535.68,350.71 531.70,342.60 529.70,337.00
             524.89,323.54 523.58,309.14 522.96,295.00
             522.96,295.00 522.00,280.00 522.00,280.00
             522.00,280.00 522.91,269.00 522.91,269.00
             523.86,255.17 525.18,241.49 528.73,228.00
             530.80,220.17 533.55,208.04 540.05,202.93
             553.54,192.33 571.70,199.41 572.90,217.00
             573.28,222.46 571.28,229.57 570.26,235.00
             567.91,247.50 565.02,261.27 565.00,274.00
             565.00,274.00 565.00,292.00 565.00,292.00
             564.83,292.09 565.75,313.00 568.00,315.00 Z
           M 437.00,216.32
           C 406.43,223.16 382.88,265.02 384.04,295.00
             384.62,310.07 390.90,325.39 408.00,326.81
             419.82,327.80 432.63,320.77 440.96,313.05
             458.09,297.17 465.99,276.75 468.72,254.00
             470.34,240.47 466.43,222.12 452.00,217.11
             447.72,215.62 441.49,215.83 437.00,216.32 Z" />
  <path id="joe"
        d="M 836.00,145.00
           C 831.46,136.38 834.15,124.94 838.87,117.00
             845.62,105.65 857.91,95.74 871.00,92.68
             878.32,90.96 885.55,91.01 893.00,90.84
             895.29,91.00 897.74,91.05 900.00,90.84
             902.97,90.18 908.13,87.68 910.69,89.11
             913.25,90.55 913.05,94.50 912.83,97.00
             912.22,103.89 910.65,110.68 907.82,117.00
             898.89,136.90 879.39,152.48 857.00,152.99
             850.55,153.13 844.58,153.03 840.00,148.00
             846.44,138.43 851.68,132.56 861.00,125.59
             861.00,125.59 882.00,112.00 882.00,112.00
             872.97,114.12 858.71,121.64 852.00,128.04
             846.19,133.58 841.81,140.74 836.00,145.00 Z
           M 841.00,172.48
           C 854.01,170.64 864.38,177.50 865.83,191.00
             866.52,197.45 864.63,203.73 863.46,210.00
             863.46,210.00 856.58,240.00 856.58,240.00
             843.59,284.47 829.19,334.61 799.42,371.00
             789.38,383.28 776.97,395.86 763.00,403.69
             743.61,414.57 732.11,417.25 710.00,417.00
             705.93,416.95 702.95,416.55 699.00,415.52
             687.82,412.61 676.16,404.87 677.05,392.00
             677.49,385.72 681.73,381.05 688.00,380.19
             696.37,379.03 703.44,382.29 710.00,381.82
             723.25,380.86 738.45,374.12 749.00,366.24
             762.06,356.48 771.59,342.94 779.62,329.00
             796.89,299.03 806.20,265.21 814.85,232.00
             814.85,232.00 822.63,197.00 822.63,197.00
             825.70,184.51 826.51,176.23 841.00,172.48 Z
           M 1072.00,290.00
           C 1072.83,296.17 1074.04,300.32 1076.67,306.00
             1081.38,316.17 1089.50,320.86 1100.00,323.35
             1121.23,328.37 1143.12,317.46 1160.00,305.26
             1160.00,305.26 1173.91,293.46 1173.91,293.46
             1173.91,293.46 1194.00,273.57 1194.00,273.57
             1198.23,270.58 1203.28,270.64 1205.40,276.04
             1207.75,282.02 1203.98,292.60 1201.19,298.00
             1193.38,313.09 1180.74,328.76 1166.91,338.67
             1159.63,343.88 1148.42,350.17 1140.00,353.20
             1123.74,359.06 1112.74,359.08 1096.00,359.00
             1076.41,358.91 1054.80,349.09 1042.26,334.00
             1039.02,330.11 1034.25,320.82 1032.35,316.00
             1028.36,305.92 1028.88,295.64 1029.00,285.00
             1029.18,270.11 1035.15,255.90 1041.98,243.00
             1055.69,217.11 1076.24,197.13 1103.00,184.95
             1109.31,182.08 1119.00,180.25 1128.00,179.09
             1142.05,178.11 1158.92,182.47 1166.87,195.00
             1177.14,211.20 1170.48,232.04 1159.77,246.00
             1140.23,271.44 1104.06,289.30 1072.00,290.00 Z
           M 952.00,182.63
           C 957.52,181.77 957.76,182.22 963.00,182.63
             984.33,185.40 1003.63,197.90 1012.47,218.00
             1015.12,224.01 1017.92,239.33 1018.00,246.00
             1018.42,282.00 1002.41,317.99 974.00,340.40
             965.84,346.83 956.95,352.33 947.00,355.54
             936.31,358.98 929.96,359.12 919.00,359.00
             912.17,358.92 908.31,357.80 902.00,355.42
             877.90,346.33 863.30,323.48 863.00,298.00
             863.00,298.00 863.00,285.00 863.00,285.00
             863.08,278.62 864.32,273.14 865.77,267.00
             874.08,231.61 899.97,197.75 935.00,185.54
             942.03,183.09 945.16,183.40 952.00,182.63 Z
           M 1076.00,262.00
           C 1082.19,263.62 1089.15,261.41 1095.00,259.19
             1108.19,254.17 1123.08,244.82 1131.07,233.00
             1134.39,228.08 1138.86,221.19 1138.52,215.00
             1138.18,208.69 1133.68,206.80 1128.00,207.11
             1119.98,207.54 1109.75,213.76 1104.00,219.09
             1098.39,224.29 1094.34,228.79 1089.91,235.00
             1083.31,244.24 1080.14,251.65 1076.00,262.00 Z
           M 954.00,214.30
           C 947.57,215.51 941.35,217.76 936.00,221.63
             917.14,235.27 902.49,269.83 903.01,293.00
             903.33,306.84 910.10,323.26 926.00,323.96
             941.17,324.63 953.07,314.76 961.36,303.00
             974.04,285.01 981.26,265.11 981.00,243.00
             980.79,226.31 972.29,212.48 954.00,214.30 Z
           M 1201.98,365.64
           C 1211.71,364.87 1213.07,373.34 1201.98,382.92
             1190.75,392.58 1176.54,398.22 1162.00,400.56
             1137.29,404.54 1113.40,402.43 1089.00,397.55
             1070.15,393.78 1051.27,387.18 1032.00,386.09
             1026.32,385.77 1013.59,388.50 1008.00,390.28
             1005.55,391.06 1000.83,393.05 999.24,389.72
             997.47,386.00 1005.48,381.24 1008.00,379.76
             1018.83,373.37 1034.63,371.86 1047.00,372.00
             1047.00,372.00 1057.00,372.92 1057.00,372.92
             1057.00,372.92 1115.00,380.09 1115.00,380.09
             1115.00,380.09 1125.00,381.00 1125.00,381.00
             1137.71,381.14 1159.93,379.72 1172.00,376.46
             1172.00,376.46 1201.98,365.64 1201.98,365.64 Z" />
</svg>
